PathFileType	4	(X/Y/Z)	Patient5_TMGait_0pt45_1_left_13.trc.trc
DataRate	CameraRate	NumFrames	NumMarkers	Units	OrigDataRate	OrigDataStartFrame	OrigNumFrames
57.142857142857	57.142857142857	6	32	mm	57.142857142857	89	       141
Frame#	Time	R.ASIS			L.ASIS			Chest			R.Shoulder			Neck			L.Shoulder			L.Elbow			L.Wrist			R.Elbow			R.Wrist			L.Thigh.Superior			L.Thigh.Lateral			L.Thigh.Inferior			L.Patella			L.Shank.Superior			L.Shank.Lateral			L.Shank.Inferior			L.Heel			L.Midfoot.Lateral			L.Midfoot.Superior			L.Toe			R.Thigh.Superior			R.Thigh.Lateral			R.Thigh.Inferior			R.Patella			R.Shank.Superior			R.Shank.Lateral			R.Shank.Inferior			R.Heel			R.Midfoot.Lateral			R.Midfoot.Superior			R.Toe			
		X1	Y1	Z1	X2	Y2	Z2	X3	Y3	Z3	X4	Y4	Z4	X5	Y5	Z5	X6	Y6	Z6	X7	Y7	Z7	X8	Y8	Z8	X9	Y9	Z9	X10	Y10	Z10	X11	Y11	Z11	X12	Y12	Z12	X13	Y13	Z13	X14	Y14	Z14	X15	Y15	Z15	X16	Y16	Z16	X17	Y17	Z17	X18	Y18	Z18	X19	Y19	Z19	X20	Y20	Z20	X21	Y21	Z21	X22	Y22	Z22	X23	Y23	Z23	X24	Y24	Z24	X25	Y25	Z25	X26	Y26	Z26	X27	Y27	Z27	X28	Y28	Z28	X29	Y29	Z29	X30	Y30	Z30	X31	Y31	Z31	X32	Y32	Z32	

89	21.720000000000	984.078757581099	986.297687852711	529.460744866270	968.649574331517	955.299764995202	289.628521102876	1016.791454729222	1439.076549154788	408.216599077246	908.723031739300	1498.223538988672	572.741309565991	888.230121666327	1556.010574098098	387.430768613597	956.622266815179	1497.914729728288	208.698929226274	908.589711091498	1175.040732181525	79.193571127294	1008.802247117788	904.962854573220	122.088479623852	827.693076777373	1179.456888439977	714.212553874167	1046.526363241647	1003.110964466868	638.251951485238	952.319132660519	727.289167236647	290.551430233565	860.643198071951	670.400319388335	254.927991255499	920.230958495332	599.819135506301	313.554745778153	887.646113042279	484.547759528656	319.066909738420	823.128569307608	393.117681274390	344.973943772369	736.922513465205	340.478155338266	272.478400432285	768.139142525399	278.739072093436	358.169900086632	594.384668774344	59.049538593255	365.568506276942	682.317794456905	30.835276742229	306.986761555385	780.630602574022	89.885136647608	349.213997902590	885.378605263795	44.624998398178	356.850638097664	1035.889832370456	762.338708188455	563.988280466765	969.430209751985	673.971350900453	623.867349631649	1056.505947302993	634.178668580913	550.368882624600	1076.630739439666	537.671456428479	587.068977785279	1040.653976274493	429.700484004612	552.865619111321	968.582211247892	359.539441420280	633.201965574677	1027.797270867404	289.586756020739	554.635736696727	916.362512754324	61.598244745455	524.670476103803	993.093893431948	30.150593869228	599.194707244534	1097.387733457637	98.789305991582	586.084916782738	1201.626188403996	59.086495981687	588.010621788192	
90	21.737500000000	984.838454276560	983.860946936966	532.624457835261	968.407345891895	954.173986168286	292.621000694921	1017.287452267237	1437.599024247579	412.592131044284	909.969967382626	1496.286108347957	577.858501995815	888.402715050777	1554.510892743809	392.750030363908	955.851315384199	1496.860696223303	213.387100708458	904.455076933220	1175.007577571983	82.880660724909	1003.069861316749	903.952158181116	123.485960432103	829.112270452884	1177.083275138961	718.471014208458	1047.487962923139	1000.647191617991	641.432783358054	950.519320529005	726.318476505780	292.284843552897	858.108441527820	670.211250344264	256.811771375180	917.520047478621	599.015870882074	314.762894773417	883.604714182359	483.421342090389	319.647648882589	818.200571112819	392.800082997895	345.392710085098	731.037704396191	341.427434568692	273.125172435835	762.199717865005	278.900700533734	358.285688625911	586.656884269732	60.143267049603	365.239086491804	674.486909816425	31.357126877479	306.791966205897	772.974154655729	90.077477467223	348.848887647448	877.345019206921	44.531716388960	356.846724302871	1033.543887752148	757.933442920064	565.663405845650	965.446618947860	669.841354258074	624.138608594547	1051.906868109164	629.425357187234	550.166464751124	1070.681740260054	532.459648030501	585.700833891218	1033.766437098122	425.285903126649	550.741385058327	961.491178815236	355.268651663127	631.007640904114	1019.787620332035	285.282182231578	551.650764090797	906.235020301296	58.441174337225	521.304895151027	982.773073503157	27.604061685006	596.152070011546	1087.863045791173	94.526114181082	581.029228560520	1191.746874383984	53.470710872182	583.428995566647	
91	21.755000000000	985.561245187528	981.645192020641	535.917794720601	968.291861191417	953.203566887316	295.799523968426	1018.136592965049	1436.283614110464	417.207573247300	911.581732816888	1494.532576123969	583.189014842477	888.988143213088	1553.247734342465	398.266781640129	955.406088602950	1495.993143717777	218.295454617898	900.501978656180	1175.162590695758	86.976373514407	997.835834688178	903.235463986914	124.956807470510	830.979319632178	1174.859754514551	722.974290093166	1048.711068110866	998.148984038296	644.806436695115	949.138978397688	725.534754527791	294.297853249793	856.129564437361	670.086677037198	258.876635689490	915.452337164461	598.365301919566	316.193397929512	880.276400548243	482.145254527995	320.389643503447	813.835019957044	392.485036870269	345.908668441406	725.708011826800	342.505685839177	273.813613005546	756.645858932977	279.163682229273	358.461995408525	579.012800797939	61.616665000810	364.878000658192	666.717544261179	32.109446438423	306.574273398604	765.461930942798	90.349362097601	348.448290119023	869.302013172394	44.417969010883	356.866613023573	1031.364388471179	754.203779312823	567.178416894383	962.072233029165	666.441928260490	624.729998234250	1047.808697152200	625.509473952621	550.120513445494	1065.593113060370	528.150742709474	584.537466347008	1027.683921788848	421.662491360603	549.075894390034	955.480253126805	351.856316334816	629.522870675398	1012.654222491385	281.825116752748	549.276419417977	897.017759196838	55.949330218723	518.854821360116	973.404454313921	26.004188937109	594.075395240043	1079.140432217690	91.420569909110	576.812400313546	1182.760295426718	49.236330725221	579.837938716951	
92	21.772500000000	986.141726277688	979.795185155252	539.367242761567	968.261770904764	952.510874690354	299.156719209654	1019.342809575326	1435.240879911688	422.038300845187	913.541058769305	1493.096456110977	588.676598177572	890.026327730152	1552.356218284629	403.918769815595	955.355378373713	1495.446931419996	223.388754887198	896.724887451642	1175.639786210515	91.496129949542	993.061515213592	902.923553185874	126.521081178891	833.300246297246	1172.932954609424	727.694120469869	1050.189286691938	995.745971830979	648.350413438133	948.231073767392	725.049698107415	296.662557541239	854.850279340297	670.070819500988	261.095853705975	914.157832679991	597.941485823092	317.895763122908	877.881189863951	480.735893406104	321.295522156173	810.204088386554	392.194407344701	346.497933538462	721.120256708344	343.749684637789	274.496200569103	751.603688990169	279.576232727560	358.679381811047	571.497598896872	63.620558418692	364.478872869923	659.041298901426	33.159311522325	306.338428683601	758.175292209753	90.701553200138	348.000827375390	861.285783507225	44.299273073741	356.896798345466	1029.478875203022	751.385973451738	568.703224812606	959.498854449548	663.948921207159	625.794612779715	1044.528233037447	622.669259281698	550.507196181711	1061.628796581514	524.929804006523	583.899131832833	1022.599128995999	418.966142736357	548.141811553870	950.639847012360	349.478697393187	628.957265460146	1006.484198868580	279.366402358331	547.755748596598	888.619693676997	54.301884073584	517.338484639688	964.883228662724	25.219752179637	592.889684513035	1071.129185109593	89.425268578591	573.727937886069	1174.555086920997	46.342014446921	577.387483528015	
93	21.790000000000	986.501668783935	978.406831097047	543.002618637951	968.272937667943	952.208280848981	302.675850579212	1020.894419050802	1434.554883924578	427.049220877932	915.818764431658	1492.090242581995	594.257580060421	891.532496830502	1551.937806489791	409.643614944538	955.773617075445	1495.339521267802	228.631448381760	893.143894381634	1176.568894413132	96.421914425138	988.706347153354	903.123529359109	128.230897092798	836.037144311816	1171.449472611423	732.602975101982	1051.912015725464	993.613829665409	652.041180564363	947.849263501094	724.962215007692	299.383183525002	854.396171143037	670.200036151646	263.402834842756	913.768135475502	597.799695931976	319.838807068687	876.664630884390	479.210632007259	322.271490685399	807.512722502293	391.936873846843	347.066702376842	717.469087300964	345.193441568685	275.084248142735	747.229663525006	280.179823537460	358.864442571994	564.174443551697	66.318017421632	364.017221859525	651.495107139235	34.560584049244	306.083810786664	751.207802491016	91.114330007649	347.481916702458	853.339054349684	44.193184821593	356.922002073575	1027.995960702083	749.568797006575	570.541200760524	957.729696120924	662.395186387165	627.445103518933	1042.275874872460	620.955453326490	551.658315590130	1058.816952680449	522.789008866607	584.136776441975	1018.520075401770	417.189794847127	548.147536511916	946.799747467353	348.147519442711	629.382192953072	1001.185929820904	277.902905124466	547.230856799399	880.820830545835	53.519708973443	516.655219234803	956.985988446830	25.036077464207	592.422859106060	1063.626411165606	88.359780126017	571.868174823202	1166.899188982171	44.597444012730	576.027152451256	
94	21.807500000000	986.604586386776	977.492219337065	546.848199162108	968.285883517530	952.365307362404	306.335920402212	1022.760063820387	1434.259566945264	432.198706149584	918.377982789413	1491.574553925300	599.875876632997	893.483062130707	1552.031630110009	415.395226009499	956.710848841249	1495.737325137765	233.994213706324	889.810087007512	1178.037750166581	101.692009336932	984.738929562635	903.908166283516	130.167724500643	839.102283852700	1170.519747039003	737.681643522040	1053.864102221273	991.946993383361	655.859501938438	948.049963269937	725.326746390988	302.370860897753	854.864656568611	670.486313594472	265.689662786145	914.420094286460	597.958480691839	321.889602161675	876.883098135170	477.578724094844	323.121671732545	805.993943945472	391.698525303825	347.456338876322	714.951684732907	346.860009427317	275.455131775111	743.712117661225	281.000402601640	358.893862221704	557.133811722655	69.879214528979	363.450443796330	644.122474907858	36.359115583230	305.801716755488	744.658769539252	91.550274350904	346.853281008380	845.501723889884	44.110410127727	356.929835830092	1026.941838660706	748.650849859225	573.056808995408	956.508700134424	661.650460099595	629.712798087573	1041.036917628237	620.198554639118	553.868549303626	1056.892213470253	521.524880159184	585.528717783971	1015.247771310449	416.185725437880	549.169071334440	943.548278477599	347.695915843521	630.688014189695	996.509955381608	277.272400446894	547.695737011926	873.360418790382	53.465112886644	516.609568675793	949.452858208457	25.218024593954	592.457475412077	1056.392084728746	87.967755225501	571.111624218678	1159.528403478768	43.726298560792	575.547444272951	
